<svg width="25" height="25" viewBox="0 0 40 74" fill="none" xmlns="http://www.w3.org/2000/svg">
<g clip-path="url(#clip0_45_216)">
<path d="M33.6067 36.86C26.9872 30.3058 20.4243 23.9198 13.9179 17.4777C9.78779 13.3884 5.65766 9.29903 1.52753 5.20971C0.169684 3.86527 -0.678972 2.46482 0.905184 0.896313C2.48934 -0.728214 3.96035 0.16808 5.26162 1.51252C16.4073 12.5481 27.553 23.5837 38.6987 34.5632C40.5092 36.2998 40.4526 37.8123 38.6987 39.5488C27.4964 50.4724 16.3507 61.508 5.20504 72.5435C3.84719 73.888 2.43276 74.7282 0.848602 73.1037C-0.735557 71.5352 0.169678 70.0787 1.52753 68.7903C11.5417 58.8751 21.4992 48.9599 31.5134 39.1007C32.1923 38.4285 32.8147 37.7563 33.6067 36.86Z" fill="white" stroke="6px"/>
</g>
<defs>
<clipPath id="clip0_45_216">
<rect width="40" height="74" fill="white" transform="translate(40 74) rotate(-180)"/>
</clipPath>
</defs>
</svg>
