<svg width="25" height="25" viewBox="0 0 40 74" fill="none" xmlns="http://www.w3.org/2000/svg">
<g clip-path="url(#clip0_45_218)">
<path d="M6.39326 37.14C13.0128 43.6942 19.5757 50.0802 26.0821 56.5223C30.2122 60.6116 34.3423 64.701 38.4725 68.7903C39.8303 70.1347 40.679 71.5352 39.0948 73.1037C37.5107 74.7282 36.0397 73.8319 34.7384 72.4875C23.5927 61.4519 12.447 50.4163 1.30132 39.4368C-0.509149 37.7002 -0.452572 36.1877 1.30132 34.4512C12.5036 23.5276 23.6493 12.492 34.795 1.45646C36.1528 0.112024 37.5672 -0.728248 39.1514 0.896279C40.7356 2.46479 39.8303 3.92126 38.4725 5.20968C28.4583 15.1249 18.5008 25.0401 8.48661 34.8993C7.80768 35.5715 7.18534 36.2437 6.39326 37.14Z" fill="white"/>
</g>
<defs>
<clipPath id="clip0_45_218">
<rect width="40" height="74" fill="white"/>
</clipPath>
</defs>
</svg>
